<svg xmlns="http://www.w3.org/2000/svg" xmlns:xlink="http://www.w3.org/1999/xlink" xmlns:lucid="lucid" width="2009.29" height="854.62"><g transform="translate(0 0)" lucid:page-tab-id="HWEp-vi-RSFO"><path d="M0 0h2009.3v854.62H0z" fill="#fff"/><path d="M520 81h360v339H520z" stroke="#000" stroke-width="2" fill="#fff"/><path d="M520 118.78h360M520 361h360" stroke="#000" stroke-width="2" fill="none"/><use xlink:href="#a" transform="matrix(1,0,0,1,528,89) translate(146.1162109375 17.5478515625)"/><use xlink:href="#b" transform="matrix(1,0,0,1,532,126.779296875) translate(80.94873046875 28.574804687500006)"/><use xlink:href="#c" transform="matrix(1,0,0,1,532,126.779296875) translate(97.92041015625 28.574804687500006)"/><use xlink:href="#d" transform="matrix(1,0,0,1,532,126.779296875) translate(76.62451171875 54.7099609375)"/><use xlink:href="#e" transform="matrix(1,0,0,1,532,126.779296875) translate(93.59619140625 54.7099609375)"/><use xlink:href="#d" transform="matrix(1,0,0,1,532,126.779296875) translate(115.23486328125 80.8451171875)"/><use xlink:href="#f" transform="matrix(1,0,0,1,532,126.779296875) translate(132.20654296875 80.8451171875)"/><use xlink:href="#d" transform="matrix(1,0,0,1,532,126.779296875) translate(93.07763671875 106.9802734375)"/><use xlink:href="#g" transform="matrix(1,0,0,1,532,126.779296875) translate(110.04931640625 106.9802734375)"/><use xlink:href="#d" transform="matrix(1,0,0,1,532,126.779296875) translate(86.69677734375 133.1154296875)"/><use xlink:href="#h" transform="matrix(1,0,0,1,532,126.779296875) translate(103.66845703125 133.1154296875)"/><use xlink:href="#d" transform="matrix(1,0,0,1,532,126.779296875) translate(101.13720703125 159.2505859375)"/><use xlink:href="#i" transform="matrix(1,0,0,1,532,126.779296875) translate(118.10888671875 159.2505859375)"/><use xlink:href="#d" transform="matrix(1,0,0,1,532,126.779296875) translate(131.85498046875 185.3857421875)"/><use xlink:href="#j" transform="matrix(1,0,0,1,532,126.779296875) translate(148.82666015625 185.3857421875)"/><use xlink:href="#k" transform="matrix(1,0,0,1,532,126.779296875) translate(168 211.5208984375)"/><path d="M1600 87.5h360v209h-360z" stroke="#000" stroke-width="2" fill="#fff"/><path d="M1600 125.28h360m-360 111.55h360" stroke="#000" stroke-width="2" fill="none"/><use xlink:href="#l" transform="matrix(1,0,0,1,1608,95.5) translate(143.013671875 17.5478515625)"/><use xlink:href="#d" transform="matrix(1,0,0,1,1612,133.279296875) translate(71.021484375 28.412695312500006)"/><use xlink:href="#m" transform="matrix(1,0,0,1,1612,133.279296875) translate(87.9931640625 28.412695312500006)"/><use xlink:href="#d" transform="matrix(1,0,0,1,1612,133.279296875) translate(52.3095703125 54.5478515625)"/><use xlink:href="#n" transform="matrix(1,0,0,1,1612,133.279296875) translate(69.28125 54.5478515625)"/><use xlink:href="#d" transform="matrix(1,0,0,1,1612,133.279296875) translate(42.0791015625 80.6830078125)"/><use xlink:href="#o" transform="matrix(1,0,0,1,1612,133.279296875) translate(59.05078125 80.6830078125)"/><path d="M20 341h360v182H20z" stroke="#000" stroke-width="2" fill="#fff"/><path d="M20 378.78h360m-360 85.4h360" stroke="#000" stroke-width="2" fill="none"/><use xlink:href="#p" transform="matrix(1,0,0,1,28,348.99999999999994) translate(136.92724609375 17.5478515625)"/><use xlink:href="#d" transform="matrix(1,0,0,1,32,386.77929687499994) translate(111.27978515625 28.480273437500003)"/><use xlink:href="#q" transform="matrix(1,0,0,1,32,386.77929687499994) translate(128.25146484375 28.480273437500003)"/><use xlink:href="#d" transform="matrix(1,0,0,1,32,386.77929687499994) translate(123.29443359375 54.6154296875)"/><use xlink:href="#r" transform="matrix(1,0,0,1,32,386.77929687499994) translate(140.26611328125 54.6154296875)"/><path d="M1122.62 138.5h-170.6l-1.82.13-1.76.43-1.67.7-1.54.93-1.38 1.17-1.17 1.37-.95 1.54-.7 1.67-.4 1.76-.15 1.83v88.5l-.16 1.92-.45 1.9-.75 1.8-1.03 1.68-1.28 1.5-1.5 1.26-1.66 1.02-1.8.75-1.9.45-1.94.16H881.5v-.95h46.48l1.82-.15 1.76-.42 1.67-.7 1.54-.94 1.38-1.17 1.17-1.38.95-1.54.7-1.67.4-1.76.15-1.82V150l.16-1.94.45-1.9.75-1.8 1.03-1.68 1.28-1.5 1.5-1.26 1.66-1.02 1.8-.75 1.9-.46 1.94-.16h170.64z" stroke="#333" stroke-width=".05" fill="#333"/><path d="M881.5 250.97h-.5v-.94h.5z" fill="#333"/><path stroke="#333" stroke-width=".05" fill="#333"/><path d="M1137.38 138l-14.26 4.65v-9.27z" fill="#333"/><path d="M1138.92 138l-16.28 5.3v-10.57zm-15.33 4l12.25-4-12.26-3.97z" stroke="#333" stroke-width=".05" fill="#333"/><use xlink:href="#s" transform="matrix(1,0,0,1,880.0920263671875,254.5) translate(0 16.216875)"/><use xlink:href="#t" transform="matrix(1,0,0,1,1114.5798681640626,109.12457236470405) translate(0 16.216875)"/><path d="M520 461h360v235H520z" stroke="#000" stroke-width="2" fill="#fff"/><path d="M520 498.78h360M520 636.46h360" stroke="#000" stroke-width="2" fill="none"/><use xlink:href="#u" transform="matrix(1,0,0,1,528,469) translate(129.1884765625 17.5478515625)"/><use xlink:href="#d" transform="matrix(1,0,0,1,532,506.779296875) translate(121.99365234375 28.3451171875)"/><use xlink:href="#v" transform="matrix(1,0,0,1,532,506.779296875) translate(138.96533203125 28.3451171875)"/><use xlink:href="#d" transform="matrix(1,0,0,1,532,506.779296875) translate(123.29443359375 54.4802734375)"/><use xlink:href="#w" transform="matrix(1,0,0,1,532,506.779296875) translate(140.26611328125 54.4802734375)"/><use xlink:href="#x" transform="matrix(1,0,0,1,532,506.779296875) translate(121.962890625 80.6154296875)"/><use xlink:href="#y" transform="matrix(1,0,0,1,532,506.779296875) translate(135.3046875 80.6154296875)"/><use xlink:href="#k" transform="matrix(1,0,0,1,532,506.779296875) translate(168 106.7505859375)"/><path d="M992.9 578.98H881.5V578h111.4zm42.1-386.5h-12.98l-1.82.14-1.76.42-1.67.7-1.54.94-1.38 1.17-1.17 1.38-.95 1.54-.7 1.67-.4 1.76-.15 1.82v362.5l-.16 1.93-.45 1.9-.75 1.8-1.03 1.68-1.28 1.5-1.5 1.26-1.66 1.02-1.74.72v-1.03l1.3-.53 1.55-.95 1.38-1.17 1.17-1.38.95-1.54.7-1.67.4-1.76.15-1.82v-362.5l.16-1.93.45-1.9.75-1.8 1.03-1.68 1.28-1.5 1.5-1.26 1.66-1.02 1.8-.75 1.9-.45 1.94-.16H1035zm87.62 0h-78.6v-.95h78.6z" stroke="#333" stroke-width=".05" fill="#333"/><path d="M881.5 578.98h-.5V578h.5z" fill="#333"/><path stroke="#333" stroke-width=".05" fill="#333"/><path d="M1137.38 192l-14.26 4.63v-9.26z" fill="#333"/><path d="M1138.92 192l-16.28 5.3v-10.6zm-15.33 3.98l12.25-3.98-12.26-3.98z" stroke="#333" stroke-width=".05" fill="#333"/><use xlink:href="#z" transform="matrix(1,0,0,1,992.9033620048233,567.6103515625) translate(0.004999999999999893 17.4375)"/><use xlink:href="#z" transform="matrix(1,0,0,1,1035.0117363890595,181.1103515625) translate(0.004999999999999893 17.4375)"/><use xlink:href="#t" transform="matrix(1,0,0,1,880.5798681640625,582.4999999999999) translate(0 16.216875)"/><use xlink:href="#A" transform="matrix(1,0,0,1,1110.9164941406248,163.1099989906258) translate(0 16.216875)"/><path d="M1280 341h360v235h-360z" stroke="#000" stroke-width="2" fill="#fff"/><path d="M1280 378.78h360m-360 137.68h360" stroke="#000" stroke-width="2" fill="none"/><use xlink:href="#B" transform="matrix(1,0,0,1,1288,349) translate(129.126953125 17.5478515625)"/><use xlink:href="#d" transform="matrix(1,0,0,1,1292,386.779296875) translate(105.650390625 28.3451171875)"/><use xlink:href="#C" transform="matrix(1,0,0,1,1292,386.779296875) translate(122.6220703125 28.3451171875)"/><use xlink:href="#d" transform="matrix(1,0,0,1,1292,386.779296875) translate(119.17236328125 54.4802734375)"/><use xlink:href="#D" transform="matrix(1,0,0,1,1292,386.779296875) translate(136.14404296875 54.4802734375)"/><use xlink:href="#d" transform="matrix(1,0,0,1,1292,386.779296875) translate(127.23193359375 80.6154296875)"/><use xlink:href="#E" transform="matrix(1,0,0,1,1292,386.779296875) translate(144.20361328125 80.6154296875)"/><use xlink:href="#d" transform="matrix(1,0,0,1,1292,386.779296875) translate(129.80712890625 106.7505859375)"/><use xlink:href="#F" transform="matrix(1,0,0,1,1292,386.779296875) translate(146.77880859375 106.7505859375)"/><path d="M1280 601h360v209h-360z" stroke="#000" stroke-width="2" fill="#fff"/><path d="M1280 638.78h360m-360 111.55h360" stroke="#000" stroke-width="2" fill="none"/><g><use xlink:href="#G" transform="matrix(1,0,0,1,1288,609) translate(100.10546875 17.5478515625)"/></g><g><use xlink:href="#d" transform="matrix(1,0,0,1,1292,646.779296875) translate(132.27685546875 28.412695312500006)"/><use xlink:href="#H" transform="matrix(1,0,0,1,1292,646.779296875) translate(149.24853515625 28.412695312500006)"/><use xlink:href="#d" transform="matrix(1,0,0,1,1292,646.779296875) translate(127.23193359375 54.5478515625)"/><use xlink:href="#E" transform="matrix(1,0,0,1,1292,646.779296875) translate(144.20361328125 54.5478515625)"/><use xlink:href="#d" transform="matrix(1,0,0,1,1292,646.779296875) translate(95.6572265625 80.6830078125)"/><use xlink:href="#I" transform="matrix(1,0,0,1,1292,646.779296875) translate(112.62890625 80.6830078125)"/></g><path d="M1598.5 192h-81.12" stroke="#333" fill="none"/><path d="M1599 192.47h-.5v-.94h.5z" stroke="#333" stroke-width=".05" fill="#333"/><path d="M1502.62 192l14.26-4.63v9.26z" stroke="#333" fill="#333"/><g><use xlink:href="#t" transform="matrix(1,0,0,1,1574.5798681640624,167.74525390624999) translate(0 16.216875)"/></g><g><use xlink:href="#s" transform="matrix(1,0,0,1,1500.0920263671876,200.63525491562422) translate(0 16.216875)"/></g><path d="M700 49.63a9.63 9.63 0 0 0-9.63-9.63H433a12 12 0 0 0-12 12v368a12 12 0 0 1-12 12h-27.5" stroke="#333" fill="none"/><path d="M700 79.3l14.85-14.86L700 49.6l-14.85 14.84z" stroke="#333" fill="#fff"/><path d="M381.5 432.48h-.5v-.96h.5z" stroke="#333" stroke-width=".05" fill="#333"/><path d="M20 81h360v235H20z" stroke="#000" stroke-width="2" fill="#fff"/><path d="M20 118.78h360M20 256.46h360" stroke="#000" stroke-width="2" fill="none"/><g><use xlink:href="#J" transform="matrix(1,0,0,1,28,89) translate(130.27392578125 17.5478515625)"/></g><g><use xlink:href="#d" transform="matrix(1,0,0,1,32,126.779296875) translate(132.07470703125 28.3451171875)"/><use xlink:href="#K" transform="matrix(1,0,0,1,32,126.779296875) translate(149.04638671875 28.3451171875)"/><use xlink:href="#L" transform="matrix(1,0,0,1,32,126.779296875) translate(115.96435546875 54.4802734375)"/><use xlink:href="#d" transform="matrix(1,0,0,1,32,126.779296875) translate(117.19482421875 80.6154296875)"/><use xlink:href="#M" transform="matrix(1,0,0,1,32,126.779296875) translate(134.16650390625 80.6154296875)"/><use xlink:href="#d" transform="matrix(1,0,0,1,32,126.779296875) translate(120.84228515625 106.7505859375)"/><use xlink:href="#N" transform="matrix(1,0,0,1,32,126.779296875) translate(137.81396484375 106.7505859375)"/></g><path d="M1140 101h360v182h-360z" stroke="#000" stroke-width="2" fill="#fff"/><path d="M1140 138.78h360m-360 85.4h360" stroke="#000" stroke-width="2" fill="none"/><g><use xlink:href="#O" transform="matrix(1,0,0,1,1148,109) translate(143.8837890625 17.5478515625)"/></g><g><use xlink:href="#d" transform="matrix(1,0,0,1,1152,146.779296875) translate(121.99365234375 28.480273437500003)"/><use xlink:href="#v" transform="matrix(1,0,0,1,1152,146.779296875) translate(138.96533203125 28.480273437500003)"/><use xlink:href="#d" transform="matrix(1,0,0,1,1152,146.779296875) translate(104.33203125 54.6154296875)"/><use xlink:href="#P" transform="matrix(1,0,0,1,1152,146.779296875) translate(121.3037109375 54.6154296875)"/></g><path d="M381.5 198.5H409a12 12 0 0 0 12-12V53a12 12 0 0 1 12-12h258.38a8.63 8.63 0 0 1 8.62 8.63" stroke="#333" fill="none"/><path d="M381.5 198.97h-.5v-.94h.5z" stroke="#333" stroke-width=".05" fill="#333"/><path d="M700 79.3l14.85-14.86L700 49.6l-14.85 14.84z" stroke="#333" fill="#fff"/><path d="M881.5 334.24H1068a12 12 0 0 1 12 12V446.5a12 12 0 0 0 12 12h172.5" stroke="#333" fill="none"/><path d="M881.5 334.72h-.5v-.95h.5z" stroke="#333" stroke-width=".05" fill="#333"/><path d="M1278 458.5l-13 7.5v-15z" stroke="#333" fill="#333"/><g><use xlink:href="#t" transform="matrix(1,0,0,1,880.5798681640625,338.2418678536335) translate(0 16.216875)"/></g><g><use xlink:href="#t" transform="matrix(1,0,0,1,1254.5798681640624,426.74525390624996) translate(0 16.216875)"/></g><path d="M1039.95 387.32l1.9.46 1.8.75 1.68 1.02 1.5 1.27 1.26 1.5 1.02 1.66.75 1.8.45 1.9.15 1.95v293.85l.15 1.82.42 1.76.7 1.67.94 1.54 1.17 1.38 1.38 1.17 1.54.95 1.67.7 1.76.4 1.82.15h202.5v.96h-202.54l-1.93-.16-1.9-.45-1.8-.75-1.68-1.03-1.5-1.28-1.26-1.5-1.02-1.66-.75-1.8-.45-1.9-.15-1.94V399.66l-.15-1.82-.42-1.76-.7-1.67-.94-1.53-1.17-1.37-1.38-1.18-1.54-.94-1.67-.7-1.76-.42-1.82-.14H881.5v-.95h156.52z" stroke="#333" stroke-width=".05" fill="#333"/><path d="M881.5 388.12h-.5v-.95h.5z" fill="#333"/><path stroke="#333" stroke-width=".05" fill="#333"/><path d="M1278 705.5l-13 7.5v-15z" fill="#333"/><path d="M1278.95 705.5l-14.4 8.32v-16.64zm-13.47 6.68l11.57-6.68-11.57-6.68z" stroke="#333" stroke-width=".05" fill="#333"/><g><use xlink:href="#A" transform="matrix(1,0,0,1,880.916494140625,391.64508447573195) translate(0 16.216875)"/></g><g><use xlink:href="#A" transform="matrix(1,0,0,1,1250.9164941406248,673.7452539062499) translate(0 16.216875)"/></g><defs><path d="M49 0l509-1490h400L1480 0h-339l-115-346H497L386 0H49zm524-585h374c-75-213-124-402-192-666-66 268-110 453-182 666" id="Q"/><path d="M428-1490V0H128v-1490h300" id="R"/><path d="M513 14c-232 0-385-159-385-421v-711h300v659c0 139 76 222 202 222 127 0 217-86 217-234v-647h301V0H864l-4-232C797-74 683 14 513 14" id="S"/><path d="M428-647V0H128v-1118h283l4 231c63-156 176-245 348-245 232 0 384 159 384 421V0H847v-659c0-139-76-222-202-222-128 0-217 86-217 234" id="T"/><path d="M628 22C291 22 81-210 81-554c0-346 210-578 547-578 336 0 547 232 547 578 0 344-211 576-547 576zm0-236c160 0 242-146 242-341 0-197-82-341-242-341S387-753 387-555c0 195 81 341 241 341" id="U"/><g id="a"><use transform="matrix(0.0087890625,0,0,0.0087890625,0,0)" xlink:href="#Q"/><use transform="matrix(0.0087890625,0,0,0.0087890625,13.4384765625,0)" xlink:href="#R"/><use transform="matrix(0.0087890625,0,0,0.0087890625,18.31640625,0)" xlink:href="#S"/><use transform="matrix(0.0087890625,0,0,0.0087890625,29.5224609375,0)" xlink:href="#T"/><use transform="matrix(0.0087890625,0,0,0.0087890625,40.728515625,0)" xlink:href="#U"/></g><path d="M593-100v-404H195v-159h398v-403h169v403h398v159H762v404H593" id="V"/><use transform="matrix(0.0087890625,0,0,0.0087890625,0,0)" xlink:href="#V" id="b"/><path d="M338-670V0H158v-1118h173l1 207c72-158 192-221 342-221 226 0 378 139 378 422V0H872v-695c0-172-96-275-252-275-161 0-282 109-282 300" id="W"/><path d="M613 24c-304 0-509-231-509-576 0-350 205-580 509-580 305 0 511 230 511 580 0 345-206 576-511 576zm0-161c226 0 329-195 329-415 0-222-103-419-329-419-223 0-326 196-326 419 0 220 103 415 326 415" id="X"/><path d="M158 0v-1118h175l1 205c55-151 181-225 313-225 147 0 245 90 285 228 53-141 190-228 352-228 194 0 352 125 352 384V0h-181v-749c0-161-105-225-225-225-151 0-243 103-243 244V0H807v-767c0-124-93-207-219-207-131 0-250 92-250 270V0H158" id="Y"/><path d="M628 24c-324 0-524-230-524-574 0-343 198-582 503-582 237 0 487 146 487 559v75H286c9 234 145 362 343 362 132 0 231-58 273-172l174 48C1024-91 857 24 628 24zM287-650h624c-17-190-120-322-304-322-192 0-309 151-320 322" id="Z"/><path d="M783 20c-382 0-661-292-661-764 0-473 279-766 661-766 302 0 548 182 601 489h-190c-42-204-217-313-411-313-268 0-476 208-476 590 0 381 209 588 476 588 195 0 369-110 411-313h190c-52 303-296 489-601 489" id="aa"/><path d="M158 418v-1536h174v179h20c37-59 106-193 324-193 279 0 474 222 474 576 0 356-194 580-473 580-213 0-288-135-325-197h-14v591H158zm492-555c209 0 317-186 317-421 0-232-105-413-317-413-206 0-314 166-314 413 0 249 111 421 314 421" id="ab"/><path d="M338-1490V0H158v-1490h180" id="ac"/><path d="M598-1118v154H368v674c0 100 37 144 132 144 23 0 62-6 92-12L629-6c-37 13-88 20-134 20-193 0-307-107-307-290v-688H20v-154h168v-266h180v266h230" id="ad"/><path d="M295 13c-75 0-135-60-135-135s60-135 135-135 135 60 135 135S370 13 295 13zm0-809c-75 0-135-60-135-135s60-135 135-135 135 60 135 135-60 135-135 135" id="ae"/><path d="M538 24C308 24 148-78 108-271l171-41c32 123 123 178 257 178 156 0 256-77 256-169 0-77-54-128-164-154l-186-44c-203-48-300-148-300-305 0-192 176-326 414-326 230 0 351 112 402 269l-163 42c-31-80-94-158-238-158-133 0-233 69-233 162 0 83 57 129 188 160l169 40c203 48 298 149 298 302 0 196-179 339-441 339" id="af"/><path d="M158 0v-1118h174v172h12c41-113 157-188 290-188 26 0 70 2 91 3v181c-11-2-60-10-108-10-161 0-279 109-279 260V0H158" id="ag"/><g id="c"><use transform="matrix(0.0087890625,0,0,0.0087890625,0,0)" xlink:href="#W"/><use transform="matrix(0.0087890625,0,0,0.0087890625,10.634765625,0)" xlink:href="#X"/><use transform="matrix(0.0087890625,0,0,0.0087890625,21.427734375,0)" xlink:href="#Y"/><use transform="matrix(0.0087890625,0,0,0.0087890625,37.1953125,0)" xlink:href="#Z"/><use transform="matrix(0.0087890625,0,0,0.0087890625,47.689453125,0)" xlink:href="#aa"/><use transform="matrix(0.0087890625,0,0,0.0087890625,60.837890625,0)" xlink:href="#X"/><use transform="matrix(0.0087890625,0,0,0.0087890625,71.630859375,0)" xlink:href="#Y"/><use transform="matrix(0.0087890625,0,0,0.0087890625,87.3984375,0)" xlink:href="#ab"/><use transform="matrix(0.0087890625,0,0,0.0087890625,98.419921875,0)" xlink:href="#ac"/><use transform="matrix(0.0087890625,0,0,0.0087890625,102.779296875,0)" xlink:href="#Z"/><use transform="matrix(0.0087890625,0,0,0.0087890625,113.2734375,0)" xlink:href="#ad"/><use transform="matrix(0.0087890625,0,0,0.0087890625,118.986328125,0)" xlink:href="#X"/><use transform="matrix(0.0087890625,0,0,0.0087890625,129.779296875,0)" xlink:href="#ae"/><use transform="matrix(0.0087890625,0,0,0.0087890625,134.96484375,0)" xlink:href="#af"/><use transform="matrix(0.0087890625,0,0,0.0087890625,144.4658203125,0)" xlink:href="#ad"/><use transform="matrix(0.0087890625,0,0,0.0087890625,150.3544921875,0)" xlink:href="#ag"/></g><use transform="matrix(0.0087890625,0,0,0.0087890625,0,0)" xlink:href="#V" id="d"/><path d="M577 24c-279 0-473-224-473-580 0-354 195-576 474-576 218 0 287 134 324 193h14v-551h180V0H922v-173h-20C865-111 790 24 577 24zm27-161c203 0 314-172 314-421 0-247-108-413-314-413-212 0-317 181-317 413 0 235 108 421 317 421" id="ah"/><path d="M471 26C259 26 90-98 90-318c0-256 228-303 435-329 202-27 287-16 287-108 0-139-79-219-234-219-161 0-248 86-283 164l-173-57c86-203 278-265 451-265 150 0 419 46 419 395V0H815v-152h-12C765-73 660 26 471 26zm31-159c199 0 310-134 310-271v-155c-30 35-226 55-295 64-131 17-246 59-246 186 0 116 97 176 231 176" id="ai"/><path d="M180 0v-1490h224l606 953c40 63 108 177 176 312-27-437-7-821-13-1265h190V0h-226C860-448 622-778 356-1262c27 476 11 792 15 1262H180" id="aj"/><path d="M613 24c-304 0-509-231-509-576 0-350 205-580 509-580 216 0 392 114 453 309l-173 49c-33-115-133-197-280-197-223 0-326 196-326 419 0 220 103 415 326 415 150 0 252-85 285-206l172 49C1010-95 832 24 613 24" id="ak"/><path d="M158 0v-1118h180V0H158zm91-1301c-68 0-125-53-125-119s57-119 125-119c69 0 126 53 126 119s-57 119-126 119" id="al"/><g id="e"><use transform="matrix(0.0087890625,0,0,0.0087890625,0,0)" xlink:href="#ah"/><use transform="matrix(0.0087890625,0,0,0.0087890625,11.021484375,0)" xlink:href="#ai"/><use transform="matrix(0.0087890625,0,0,0.0087890625,21.12890625,0)" xlink:href="#ad"/><use transform="matrix(0.0087890625,0,0,0.0087890625,27.10546875,0)" xlink:href="#ai"/><use transform="matrix(0.0087890625,0,0,0.0087890625,37.212890625,0)" xlink:href="#aj"/><use transform="matrix(0.0087890625,0,0,0.0087890625,50.7744140625,0)" xlink:href="#ai"/><use transform="matrix(0.0087890625,0,0,0.0087890625,60.8818359375,0)" xlink:href="#af"/><use transform="matrix(0.0087890625,0,0,0.0087890625,70.3828125,0)" xlink:href="#ak"/><use transform="matrix(0.0087890625,0,0,0.0087890625,80.666015625,0)" xlink:href="#al"/><use transform="matrix(0.0087890625,0,0,0.0087890625,85.025390625,0)" xlink:href="#Y"/><use transform="matrix(0.0087890625,0,0,0.0087890625,100.79296875,0)" xlink:href="#Z"/><use transform="matrix(0.0087890625,0,0,0.0087890625,111.287109375,0)" xlink:href="#W"/><use transform="matrix(0.0087890625,0,0,0.0087890625,121.921875,0)" xlink:href="#ad"/><use transform="matrix(0.0087890625,0,0,0.0087890625,127.634765625,0)" xlink:href="#X"/><use transform="matrix(0.0087890625,0,0,0.0087890625,138.427734375,0)" xlink:href="#ae"/><use transform="matrix(0.0087890625,0,0,0.0087890625,143.61328125,0)" xlink:href="#af"/><use transform="matrix(0.0087890625,0,0,0.0087890625,153.1142578125,0)" xlink:href="#ad"/><use transform="matrix(0.0087890625,0,0,0.0087890625,159.0029296875,0)" xlink:href="#ag"/></g><path d="M678-1118v154H420V0H240v-964H20v-154h220v-149c0-194 155-293 318-293 85 0 141 18 168 30l-50 154c-19-6-47-17-97-17-111 0-159 58-159 166v109h258" id="am"/><path d="M502 418V313h118c73 0 98-17 98-66s-25-65-98-65h-82l21-161C285-4 104-228 104-552c0-350 205-580 509-580 216 0 392 114 453 309l-173 49c-33-115-133-197-280-197-223 0-326 196-326 419 0 220 103 415 326 415 150 0 252-85 285-206l172 49C1015-110 859 5 663 22v64c130 5 189 54 189 162 0 118-71 170-231 170H502" id="an"/><path d="M471 26C259 26 90-98 90-318c0-256 228-303 435-329 202-27 287-16 287-108 0-139-79-219-234-219-161 0-248 86-283 164l-173-57c86-203 278-265 451-265 150 0 419 46 419 395V0H815v-152h-12C765-73 660 26 471 26zm31-159c199 0 310-134 310-271v-155c-30 35-226 55-295 64-131 17-246 59-246 186 0 116 97 176 231 176zm187-1180c-99 0-192-83-243-83-35 0-51 40-53 79H267c4-120 55-208 162-208 104 0 174 85 241 85 33 0 49-23 56-81h123c-4 126-62 208-160 208" id="ao"/><g id="f"><use transform="matrix(0.0087890625,0,0,0.0087890625,0,0)" xlink:href="#am"/><use transform="matrix(0.0087890625,0,0,0.0087890625,6.662109375,0)" xlink:href="#al"/><use transform="matrix(0.0087890625,0,0,0.0087890625,11.021484375,0)" xlink:href="#ac"/><use transform="matrix(0.0087890625,0,0,0.0087890625,15.380859375,0)" xlink:href="#al"/><use transform="matrix(0.0087890625,0,0,0.0087890625,19.740234375,0)" xlink:href="#ai"/><use transform="matrix(0.0087890625,0,0,0.0087890625,29.84765625,0)" xlink:href="#an"/><use transform="matrix(0.0087890625,0,0,0.0087890625,40.306640625,0)" xlink:href="#ao"/><use transform="matrix(0.0087890625,0,0,0.0087890625,50.4140625,0)" xlink:href="#X"/><use transform="matrix(0.0087890625,0,0,0.0087890625,61.20703125,0)" xlink:href="#ae"/><use transform="matrix(0.0087890625,0,0,0.0087890625,66.392578125,0)" xlink:href="#af"/><use transform="matrix(0.0087890625,0,0,0.0087890625,75.8935546875,0)" xlink:href="#ad"/><use transform="matrix(0.0087890625,0,0,0.0087890625,81.7822265625,0)" xlink:href="#ag"/></g><path d="M537 14c-226 0-379-139-379-422v-710h180v695c0 172 97 275 253 275 160 0 281-109 281-300v-670h181V0H879v-209C806-46 684 14 537 14" id="ap"/><g id="g"><use transform="matrix(0.0087890625,0,0,0.0087890625,0,0)" xlink:href="#W"/><use transform="matrix(0.0087890625,0,0,0.0087890625,10.634765625,0)" xlink:href="#ai"/><use transform="matrix(0.0087890625,0,0,0.0087890625,20.7421875,0)" xlink:href="#ad"/><use transform="matrix(0.0087890625,0,0,0.0087890625,26.630859375,0)" xlink:href="#ap"/><use transform="matrix(0.0087890625,0,0,0.0087890625,37.2744140625,0)" xlink:href="#ag"/><use transform="matrix(0.0087890625,0,0,0.0087890625,44.05078125,0)" xlink:href="#ai"/><use transform="matrix(0.0087890625,0,0,0.0087890625,54.158203125,0)" xlink:href="#ac"/><use transform="matrix(0.0087890625,0,0,0.0087890625,58.517578125,0)" xlink:href="#al"/><use transform="matrix(0.0087890625,0,0,0.0087890625,62.876953125,0)" xlink:href="#ah"/><use transform="matrix(0.0087890625,0,0,0.0087890625,73.8984375,0)" xlink:href="#ai"/><use transform="matrix(0.0087890625,0,0,0.0087890625,84.005859375,0)" xlink:href="#ah"/><use transform="matrix(0.0087890625,0,0,0.0087890625,95.02734375,0)" xlink:href="#Z"/><use transform="matrix(0.0087890625,0,0,0.0087890625,105.521484375,0)" xlink:href="#ae"/><use transform="matrix(0.0087890625,0,0,0.0087890625,110.70703125,0)" xlink:href="#af"/><use transform="matrix(0.0087890625,0,0,0.0087890625,120.2080078125,0)" xlink:href="#ad"/><use transform="matrix(0.0087890625,0,0,0.0087890625,126.0966796875,0)" xlink:href="#ag"/></g><g id="h"><use transform="matrix(0.0087890625,0,0,0.0087890625,0,0)" xlink:href="#W"/><use transform="matrix(0.0087890625,0,0,0.0087890625,10.634765625,0)" xlink:href="#ai"/><use transform="matrix(0.0087890625,0,0,0.0087890625,20.7421875,0)" xlink:href="#ak"/><use transform="matrix(0.0087890625,0,0,0.0087890625,31.025390625,0)" xlink:href="#al"/><use transform="matrix(0.0087890625,0,0,0.0087890625,35.384765625,0)" xlink:href="#X"/><use transform="matrix(0.0087890625,0,0,0.0087890625,46.177734375,0)" xlink:href="#W"/><use transform="matrix(0.0087890625,0,0,0.0087890625,56.8125,0)" xlink:href="#ai"/><use transform="matrix(0.0087890625,0,0,0.0087890625,66.919921875,0)" xlink:href="#ac"/><use transform="matrix(0.0087890625,0,0,0.0087890625,71.279296875,0)" xlink:href="#al"/><use transform="matrix(0.0087890625,0,0,0.0087890625,75.638671875,0)" xlink:href="#ah"/><use transform="matrix(0.0087890625,0,0,0.0087890625,86.66015625,0)" xlink:href="#ai"/><use transform="matrix(0.0087890625,0,0,0.0087890625,96.767578125,0)" xlink:href="#ah"/><use transform="matrix(0.0087890625,0,0,0.0087890625,107.7890625,0)" xlink:href="#Z"/><use transform="matrix(0.0087890625,0,0,0.0087890625,118.283203125,0)" xlink:href="#ae"/><use transform="matrix(0.0087890625,0,0,0.0087890625,123.46875,0)" xlink:href="#af"/><use transform="matrix(0.0087890625,0,0,0.0087890625,132.9697265625,0)" xlink:href="#ad"/><use transform="matrix(0.0087890625,0,0,0.0087890625,138.8583984375,0)" xlink:href="#ag"/></g><g id="i"><use transform="matrix(0.0087890625,0,0,0.0087890625,0,0)" xlink:href="#al"/><use transform="matrix(0.0087890625,0,0,0.0087890625,4.359375,0)" xlink:href="#ah"/><use transform="matrix(0.0087890625,0,0,0.0087890625,15.380859375,0)" xlink:href="#Z"/><use transform="matrix(0.0087890625,0,0,0.0087890625,25.875,0)" xlink:href="#W"/><use transform="matrix(0.0087890625,0,0,0.0087890625,36.509765625,0)" xlink:href="#ad"/><use transform="matrix(0.0087890625,0,0,0.0087890625,42.3984375,0)" xlink:href="#al"/><use transform="matrix(0.0087890625,0,0,0.0087890625,46.7578125,0)" xlink:href="#ah"/><use transform="matrix(0.0087890625,0,0,0.0087890625,57.779296875,0)" xlink:href="#ai"/><use transform="matrix(0.0087890625,0,0,0.0087890625,67.88671875,0)" xlink:href="#ah"/><use transform="matrix(0.0087890625,0,0,0.0087890625,78.908203125,0)" xlink:href="#Z"/><use transform="matrix(0.0087890625,0,0,0.0087890625,89.40234375,0)" xlink:href="#ae"/><use transform="matrix(0.0087890625,0,0,0.0087890625,94.587890625,0)" xlink:href="#af"/><use transform="matrix(0.0087890625,0,0,0.0087890625,104.0888671875,0)" xlink:href="#ad"/><use transform="matrix(0.0087890625,0,0,0.0087890625,109.9775390625,0)" xlink:href="#ag"/></g><g id="j"><use transform="matrix(0.0087890625,0,0,0.0087890625,0,0)" xlink:href="#ak"/><use transform="matrix(0.0087890625,0,0,0.0087890625,10.283203125,0)" xlink:href="#ab"/><use transform="matrix(0.0087890625,0,0,0.0087890625,21.3046875,0)" xlink:href="#am"/><use transform="matrix(0.0087890625,0,0,0.0087890625,27.966796875,0)" xlink:href="#ae"/><use transform="matrix(0.0087890625,0,0,0.0087890625,33.15234375,0)" xlink:href="#af"/><use transform="matrix(0.0087890625,0,0,0.0087890625,42.6533203125,0)" xlink:href="#ad"/><use transform="matrix(0.0087890625,0,0,0.0087890625,48.5419921875,0)" xlink:href="#ag"/></g><path d="M135 0v-1490h997v253H440v360h640v249H440v375h694V0H135" id="aq"/><path d="M572 22C302 22 117-98 78-306l279-48c29 105 101 156 224 156 114 0 185-48 185-115 0-118-228-130-337-155-215-49-322-150-322-317 0-215 187-347 470-347 265 0 424 116 466 298l-266 47c-24-76-87-130-196-130-98 0-174 46-174 113 0 56 38 95 144 117l201 40c216 44 320 143 320 302 0 220-207 367-500 367" id="ar"/><path d="M628 22C291 22 81-210 81-554c0-346 210-578 547-578 265 0 455 142 497 372l-279 52c-25-116-99-188-215-188-160 0-244 139-244 341 0 200 84 341 244 341 116 0 193-74 217-195l279 51C1085-123 896 22 628 22" id="as"/><path d="M440 22C227 22 68-92 68-313c0-250 202-322 422-343 195-21 271-24 271-105 0-95-63-149-175-149-116 0-187 57-211 129l-275-46c57-194 237-305 487-305 240 0 474 108 474 379V0H777v-155h-10C713-51 605 22 440 22zm85-211c140 0 238-93 238-211v-121c-37 26-156 42-222 51-111 16-185 59-185 149 0 87 70 132 169 132" id="at"/><g id="l"><use transform="matrix(0.0087890625,0,0,0.0087890625,0,0)" xlink:href="#aq"/><use transform="matrix(0.0087890625,0,0,0.0087890625,10.93359375,0)" xlink:href="#ar"/><use transform="matrix(0.0087890625,0,0,0.0087890625,21.0146484375,0)" xlink:href="#as"/><use transform="matrix(0.0087890625,0,0,0.0087890625,31.60546875,0)" xlink:href="#U"/><use transform="matrix(0.0087890625,0,0,0.0087890625,42.64453125,0)" xlink:href="#R"/><use transform="matrix(0.0087890625,0,0,0.0087890625,47.5224609375,0)" xlink:href="#at"/></g><path d="M180 0v-1490h908v168H370v486h669v168H370v500h727V0H180" id="au"/><g id="m"><use transform="matrix(0.0087890625,0,0,0.0087890625,0,0)" xlink:href="#al"/><use transform="matrix(0.0087890625,0,0,0.0087890625,4.359375,0)" xlink:href="#W"/><use transform="matrix(0.0087890625,0,0,0.0087890625,14.994140625,0)" xlink:href="#af"/><use transform="matrix(0.0087890625,0,0,0.0087890625,24.4951171875,0)" xlink:href="#ad"/><use transform="matrix(0.0087890625,0,0,0.0087890625,30.3837890625,0)" xlink:href="#al"/><use transform="matrix(0.0087890625,0,0,0.0087890625,34.7431640625,0)" xlink:href="#ad"/><use transform="matrix(0.0087890625,0,0,0.0087890625,40.6318359375,0)" xlink:href="#ap"/><use transform="matrix(0.0087890625,0,0,0.0087890625,51.275390625,0)" xlink:href="#al"/><use transform="matrix(0.0087890625,0,0,0.0087890625,55.634765625,0)" xlink:href="#an"/><use transform="matrix(0.0087890625,0,0,0.0087890625,66.09375,0)" xlink:href="#ao"/><use transform="matrix(0.0087890625,0,0,0.0087890625,76.201171875,0)" xlink:href="#X"/><use transform="matrix(0.0087890625,0,0,0.0087890625,86.994140625,0)" xlink:href="#au"/><use transform="matrix(0.0087890625,0,0,0.0087890625,97.8134765625,0)" xlink:href="#af"/><use transform="matrix(0.0087890625,0,0,0.0087890625,107.314453125,0)" xlink:href="#ak"/><use transform="matrix(0.0087890625,0,0,0.0087890625,117.59765625,0)" xlink:href="#X"/><use transform="matrix(0.0087890625,0,0,0.0087890625,128.390625,0)" xlink:href="#ac"/><use transform="matrix(0.0087890625,0,0,0.0087890625,132.75,0)" xlink:href="#ai"/><use transform="matrix(0.0087890625,0,0,0.0087890625,142.857421875,0)" xlink:href="#ag"/><use transform="matrix(0.0087890625,0,0,0.0087890625,149.6337890625,0)" xlink:href="#ae"/><use transform="matrix(0.0087890625,0,0,0.0087890625,154.8193359375,0)" xlink:href="#af"/><use transform="matrix(0.0087890625,0,0,0.0087890625,164.3203125,0)" xlink:href="#ad"/><use transform="matrix(0.0087890625,0,0,0.0087890625,170.208984375,0)" xlink:href="#ag"/></g><path d="M180 0v-1490h270l367 940c28 72 75 218 110 339 35-117 81-264 110-339l362-940h271V0h-187c2-448-5-837 7-1287-157 497-311 829-483 1287H842C666-458 514-784 354-1284c12 438 5 843 7 1284H180" id="av"/><g id="n"><use transform="matrix(0.0087890625,0,0,0.0087890625,0,0)" xlink:href="#Z"/><use transform="matrix(0.0087890625,0,0,0.0087890625,10.494140625,0)" xlink:href="#W"/><use transform="matrix(0.0087890625,0,0,0.0087890625,21.12890625,0)" xlink:href="#ad"/><use transform="matrix(0.0087890625,0,0,0.0087890625,27.017578125,0)" xlink:href="#al"/><use transform="matrix(0.0087890625,0,0,0.0087890625,31.376953125,0)" xlink:href="#ah"/><use transform="matrix(0.0087890625,0,0,0.0087890625,42.3984375,0)" xlink:href="#ai"/><use transform="matrix(0.0087890625,0,0,0.0087890625,52.505859375,0)" xlink:href="#ah"/><use transform="matrix(0.0087890625,0,0,0.0087890625,63.52734375,0)" xlink:href="#Z"/><use transform="matrix(0.0087890625,0,0,0.0087890625,74.021484375,0)" xlink:href="#av"/><use transform="matrix(0.0087890625,0,0,0.0087890625,90.28125,0)" xlink:href="#ai"/><use transform="matrix(0.0087890625,0,0,0.0087890625,100.388671875,0)" xlink:href="#W"/><use transform="matrix(0.0087890625,0,0,0.0087890625,111.0234375,0)" xlink:href="#ad"/><use transform="matrix(0.0087890625,0,0,0.0087890625,116.736328125,0)" xlink:href="#Z"/><use transform="matrix(0.0087890625,0,0,0.0087890625,127.23046875,0)" xlink:href="#W"/><use transform="matrix(0.0087890625,0,0,0.0087890625,137.865234375,0)" xlink:href="#Z"/><use transform="matrix(0.0087890625,0,0,0.0087890625,148.359375,0)" xlink:href="#ah"/><use transform="matrix(0.0087890625,0,0,0.0087890625,159.380859375,0)" xlink:href="#X"/><use transform="matrix(0.0087890625,0,0,0.0087890625,170.173828125,0)" xlink:href="#ag"/><use transform="matrix(0.0087890625,0,0,0.0087890625,176.9501953125,0)" xlink:href="#ai"/><use transform="matrix(0.0087890625,0,0,0.0087890625,187.0576171875,0)" xlink:href="#ae"/><use transform="matrix(0.0087890625,0,0,0.0087890625,192.2431640625,0)" xlink:href="#af"/><use transform="matrix(0.0087890625,0,0,0.0087890625,201.744140625,0)" xlink:href="#ad"/><use transform="matrix(0.0087890625,0,0,0.0087890625,207.6328125,0)" xlink:href="#ag"/></g><path d="M537 14c-226 0-379-139-379-422v-710h180v695c0 172 97 275 253 275 160 0 281-109 281-300v-670h181V0H879v-209C806-46 684 14 537 14zm-11-1278l140-294h201l-194 294H526" id="aw"/><path d="M180 0v-1490h510c348 0 508 194 508 460 0 198-88 351-276 417L1256 0h-220L726-579c-117 2-238 0-356 1V0H180zm190-747h312c235 0 327-108 327-283 0-177-92-293-329-293H370v576" id="ax"/><path d="M338-670V0H158v-1490h180v566c73-149 190-208 336-208 226 0 379 139 379 422V0H872v-695c0-172-96-275-252-275-161 0-282 109-282 300" id="ay"/><g id="o"><use transform="matrix(0.0087890625,0,0,0.0087890625,0,0)" xlink:href="#W"/><use transform="matrix(0.0087890625,0,0,0.0087890625,10.634765625,0)" xlink:href="#aw"/><use transform="matrix(0.0087890625,0,0,0.0087890625,21.2783203125,0)" xlink:href="#Y"/><use transform="matrix(0.0087890625,0,0,0.0087890625,37.0458984375,0)" xlink:href="#Z"/><use transform="matrix(0.0087890625,0,0,0.0087890625,47.5400390625,0)" xlink:href="#ag"/><use transform="matrix(0.0087890625,0,0,0.0087890625,54.017578125,0)" xlink:href="#X"/><use transform="matrix(0.0087890625,0,0,0.0087890625,64.810546875,0)" xlink:href="#ax"/><use transform="matrix(0.0087890625,0,0,0.0087890625,76.130859375,0)" xlink:href="#Z"/><use transform="matrix(0.0087890625,0,0,0.0087890625,86.625,0)" xlink:href="#ak"/><use transform="matrix(0.0087890625,0,0,0.0087890625,96.908203125,0)" xlink:href="#X"/><use transform="matrix(0.0087890625,0,0,0.0087890625,107.701171875,0)" xlink:href="#W"/><use transform="matrix(0.0087890625,0,0,0.0087890625,118.3359375,0)" xlink:href="#ay"/><use transform="matrix(0.0087890625,0,0,0.0087890625,128.9794921875,0)" xlink:href="#Z"/><use transform="matrix(0.0087890625,0,0,0.0087890625,139.4736328125,0)" xlink:href="#ak"/><use transform="matrix(0.0087890625,0,0,0.0087890625,149.7568359375,0)" xlink:href="#al"/><use transform="matrix(0.0087890625,0,0,0.0087890625,154.1162109375,0)" xlink:href="#Y"/><use transform="matrix(0.0087890625,0,0,0.0087890625,169.8837890625,0)" xlink:href="#Z"/><use transform="matrix(0.0087890625,0,0,0.0087890625,180.3779296875,0)" xlink:href="#W"/><use transform="matrix(0.0087890625,0,0,0.0087890625,191.0126953125,0)" xlink:href="#ad"/><use transform="matrix(0.0087890625,0,0,0.0087890625,196.7255859375,0)" xlink:href="#X"/><use transform="matrix(0.0087890625,0,0,0.0087890625,207.5185546875,0)" xlink:href="#ae"/><use transform="matrix(0.0087890625,0,0,0.0087890625,212.7041015625,0)" xlink:href="#af"/><use transform="matrix(0.0087890625,0,0,0.0087890625,222.205078125,0)" xlink:href="#ad"/><use transform="matrix(0.0087890625,0,0,0.0087890625,228.09375,0)" xlink:href="#ag"/></g><path d="M786 20C389 20 94-260 94-744c0-487 299-766 692-766 339 0 597 194 641 529h-309c-28-162-156-258-326-258-233 0-388 179-388 495 0 323 157 493 387 493 170 0 298-97 328-259h309c-34 277-266 530-642 530" id="az"/><path d="M683-1118v229H474v562c0 71 29 104 102 104 23 0 73-7 95-13l43 225C647 9 580 16 520 16 296 16 174-96 174-301v-588H20v-229h154v-266h300v266h209" id="aA"/><g id="p"><use transform="matrix(0.0087890625,0,0,0.0087890625,0,0)" xlink:href="#az"/><use transform="matrix(0.0087890625,0,0,0.0087890625,13.3154296875,0)" xlink:href="#U"/><use transform="matrix(0.0087890625,0,0,0.0087890625,24.3544921875,0)" xlink:href="#T"/><use transform="matrix(0.0087890625,0,0,0.0087890625,35.560546875,0)" xlink:href="#aA"/><use transform="matrix(0.0087890625,0,0,0.0087890625,42.240234375,0)" xlink:href="#at"/><use transform="matrix(0.0087890625,0,0,0.0087890625,52.6904296875,0)" xlink:href="#aA"/><use transform="matrix(0.0087890625,0,0,0.0087890625,59.1064453125,0)" xlink:href="#U"/></g><g id="q"><use transform="matrix(0.0087890625,0,0,0.0087890625,0,0)" xlink:href="#ad"/><use transform="matrix(0.0087890625,0,0,0.0087890625,5.712890625,0)" xlink:href="#Z"/><use transform="matrix(0.0087890625,0,0,0.0087890625,16.20703125,0)" xlink:href="#ac"/><use transform="matrix(0.0087890625,0,0,0.0087890625,20.56640625,0)" xlink:href="#Z"/><use transform="matrix(0.0087890625,0,0,0.0087890625,31.060546875,0)" xlink:href="#am"/><use transform="matrix(0.0087890625,0,0,0.0087890625,37.1953125,0)" xlink:href="#X"/><use transform="matrix(0.0087890625,0,0,0.0087890625,47.98828125,0)" xlink:href="#W"/><use transform="matrix(0.0087890625,0,0,0.0087890625,58.623046875,0)" xlink:href="#Z"/><use transform="matrix(0.0087890625,0,0,0.0087890625,69.1171875,0)" xlink:href="#ae"/><use transform="matrix(0.0087890625,0,0,0.0087890625,74.302734375,0)" xlink:href="#af"/><use transform="matrix(0.0087890625,0,0,0.0087890625,83.8037109375,0)" xlink:href="#ad"/><use transform="matrix(0.0087890625,0,0,0.0087890625,89.6923828125,0)" xlink:href="#ag"/></g><g id="r"><use transform="matrix(0.0087890625,0,0,0.0087890625,0,0)" xlink:href="#Z"/><use transform="matrix(0.0087890625,0,0,0.0087890625,10.494140625,0)" xlink:href="#Y"/><use transform="matrix(0.0087890625,0,0,0.0087890625,26.26171875,0)" xlink:href="#ai"/><use transform="matrix(0.0087890625,0,0,0.0087890625,36.369140625,0)" xlink:href="#al"/><use transform="matrix(0.0087890625,0,0,0.0087890625,40.728515625,0)" xlink:href="#ac"/><use transform="matrix(0.0087890625,0,0,0.0087890625,45.087890625,0)" xlink:href="#ae"/><use transform="matrix(0.0087890625,0,0,0.0087890625,50.2734375,0)" xlink:href="#af"/><use transform="matrix(0.0087890625,0,0,0.0087890625,59.7744140625,0)" xlink:href="#ad"/><use transform="matrix(0.0087890625,0,0,0.0087890625,65.6630859375,0)" xlink:href="#ag"/></g><path d="M653-1490V0H466v-1314h-10L96-1047v-204l324-239h233" id="aB"/><path d="M295 13c-75 0-135-60-135-135s60-135 135-135 135 60 135 135S370 13 295 13" id="aC"/><g id="s"><use transform="matrix(0.008173828125000001,0,0,0.008173828125000001,0,0)" xlink:href="#aB"/><use transform="matrix(0.008173828125000001,0,0,0.008173828125000001,6.808798828125001,0)" xlink:href="#aC"/><use transform="matrix(0.008173828125000001,0,0,0.008173828125000001,11.631357421875002,0)" xlink:href="#aC"/><use transform="matrix(0.008173828125000001,0,0,0.008173828125000001,15.007148437500003,0)" xlink:href="#aB"/></g><path d="M441-652l13-317-268 171-72-126 282-146-282-146 72-128 268 171-13-317h144l-12 317 267-171 72 128-282 146 282 146-72 126-267-171 12 317H441" id="aD"/><g id="t"><use transform="matrix(0.008173828125000001,0,0,0.008173828125000001,0,0)" xlink:href="#aB"/><use transform="matrix(0.008173828125000001,0,0,0.008173828125000001,6.808798828125001,0)" xlink:href="#aC"/><use transform="matrix(0.008173828125000001,0,0,0.008173828125000001,11.631357421875002,0)" xlink:href="#aC"/><use transform="matrix(0.008173828125000001,0,0,0.008173828125000001,16.453916015625,0)" xlink:href="#aD"/></g><path d="M135 0v-1490h581c339 0 533 210 533 503 0 295-197 500-540 500H440V0H135zm305-733h220c186 0 274-104 274-254s-88-251-275-251H440v505" id="aE"/><path d="M128 0v-1118h290v195h12c54-169 184-238 367-200v268c-27-8-86-15-130-15-138 0-239 95-239 234V0H128" id="aF"/><path d="M750-1118v229H516V0H217v-889H20v-229h197v-86c0-238 156-356 363-356 94 0 178 20 215 31l-54 226c-25-7-61-15-100-15-123-3-131 84-125 200h234" id="aG"/><path d="M633 22C291 22 81-200 81-553c0-345 210-579 537-579 292 0 525 185 525 567v84H378c7 183 109 277 260 277 105 0 184-46 216-132l272 51C1071-99 893 22 633 22zM380-669h474c-15-146-94-237-233-237-143 0-229 99-241 237" id="aH"/><g id="u"><use transform="matrix(0.0087890625,0,0,0.0087890625,0,0)" xlink:href="#aE"/><use transform="matrix(0.0087890625,0,0,0.0087890625,11.6630859375,0)" xlink:href="#aF"/><use transform="matrix(0.0087890625,0,0,0.0087890625,18.5537109375,0)" xlink:href="#U"/><use transform="matrix(0.0087890625,0,0,0.0087890625,29.5927734375,0)" xlink:href="#aG"/><use transform="matrix(0.0087890625,0,0,0.0087890625,36.369140625,0)" xlink:href="#aH"/><use transform="matrix(0.0087890625,0,0,0.0087890625,47.091796875,0)" xlink:href="#ar"/><use transform="matrix(0.0087890625,0,0,0.0087890625,57.1728515625,0)" xlink:href="#ar"/><use transform="matrix(0.0087890625,0,0,0.0087890625,67.25390625,0)" xlink:href="#U"/><use transform="matrix(0.0087890625,0,0,0.0087890625,78.29296875,0)" xlink:href="#aF"/></g><g id="v"><use transform="matrix(0.0087890625,0,0,0.0087890625,0,0)" xlink:href="#W"/><use transform="matrix(0.0087890625,0,0,0.0087890625,10.634765625,0)" xlink:href="#X"/><use transform="matrix(0.0087890625,0,0,0.0087890625,21.427734375,0)" xlink:href="#Y"/><use transform="matrix(0.0087890625,0,0,0.0087890625,37.1953125,0)" xlink:href="#Z"/><use transform="matrix(0.0087890625,0,0,0.0087890625,47.689453125,0)" xlink:href="#ae"/><use transform="matrix(0.0087890625,0,0,0.0087890625,52.875,0)" xlink:href="#af"/><use transform="matrix(0.0087890625,0,0,0.0087890625,62.3759765625,0)" xlink:href="#ad"/><use transform="matrix(0.0087890625,0,0,0.0087890625,68.2646484375,0)" xlink:href="#ag"/></g><g id="w"><use transform="matrix(0.0087890625,0,0,0.0087890625,0,0)" xlink:href="#Z"/><use transform="matrix(0.0087890625,0,0,0.0087890625,10.494140625,0)" xlink:href="#Y"/><use transform="matrix(0.0087890625,0,0,0.0087890625,26.26171875,0)" xlink:href="#ai"/><use transform="matrix(0.0087890625,0,0,0.0087890625,36.369140625,0)" xlink:href="#al"/><use transform="matrix(0.0087890625,0,0,0.0087890625,40.728515625,0)" xlink:href="#ac"/><use transform="matrix(0.0087890625,0,0,0.0087890625,45.087890625,0)" xlink:href="#ae"/><use transform="matrix(0.0087890625,0,0,0.0087890625,50.2734375,0)" xlink:href="#af"/><use transform="matrix(0.0087890625,0,0,0.0087890625,59.7744140625,0)" xlink:href="#ad"/><use transform="matrix(0.0087890625,0,0,0.0087890625,65.6630859375,0)" xlink:href="#ag"/></g><path d="M798-719v166H144v-166h654" id="aI"/><use transform="matrix(0.0087890625,0,0,0.0087890625,0,0)" xlink:href="#aI" id="x"/><g id="y"><use transform="matrix(0.0087890625,0,0,0.0087890625,0,0)" xlink:href="#af"/><use transform="matrix(0.0087890625,0,0,0.0087890625,9.5009765625,0)" xlink:href="#Z"/><use transform="matrix(0.0087890625,0,0,0.0087890625,19.9951171875,0)" xlink:href="#W"/><use transform="matrix(0.0087890625,0,0,0.0087890625,30.6298828125,0)" xlink:href="#ay"/><use transform="matrix(0.0087890625,0,0,0.0087890625,41.2734375,0)" xlink:href="#ai"/><use transform="matrix(0.0087890625,0,0,0.0087890625,51.380859375,0)" xlink:href="#ae"/><use transform="matrix(0.0087890625,0,0,0.0087890625,56.56640625,0)" xlink:href="#af"/><use transform="matrix(0.0087890625,0,0,0.0087890625,66.0673828125,0)" xlink:href="#ad"/><use transform="matrix(0.0087890625,0,0,0.0087890625,71.9560546875,0)" xlink:href="#ag"/></g><use transform="matrix(0.0087890625,0,0,0.0087890625,0,0)" xlink:href="#aD" id="z"/><path d="M646 20c-332 0-524-278-524-764 0-483 194-766 524-766s524 283 524 766c0 485-191 764-524 764zm0-166c218 0 341-220 341-598 0-380-123-601-341-601s-341 222-341 601c0 378 123 598 341 598" id="aJ"/><g id="A"><use transform="matrix(0.008173828125000001,0,0,0.008173828125000001,0,0)" xlink:href="#aJ"/><use transform="matrix(0.008173828125000001,0,0,0.008173828125000001,10.135546875000001,0)" xlink:href="#aC"/><use transform="matrix(0.008173828125000001,0,0,0.008173828125000001,14.958105468750002,0)" xlink:href="#aC"/><use transform="matrix(0.008173828125000001,0,0,0.008173828125000001,19.7806640625,0)" xlink:href="#aD"/></g><path d="M443 0L31-1118h319c90 293 199 572 268 885 66-313 175-593 264-885h315L784 0H443" id="aK"/><path d="M128 0v-1118h300V0H128zm150-1264c-91 0-165-68-165-154 0-85 74-154 165-154 90 0 165 69 165 154 0 86-75 154-165 154" id="aL"/><path d="M499 418V299c80-5 216 24 216-62 0-44-25-60-89-60h-91l26-158C264-10 81-233 81-554c0-346 210-578 547-578 265 0 455 142 497 372l-279 52c-25-116-99-188-215-188-160 0-244 139-244 341 0 200 84 341 244 341 116 0 193-74 217-195l279 51C1088-140 923 0 685 20l-4 68c126-6 197 51 197 157 0 123-72 173-239 173H499" id="aM"/><path d="M440 22C227 22 68-92 68-313c0-250 202-322 422-343 195-21 271-24 271-105 0-95-63-149-175-149-116 0-187 57-211 129l-275-46c57-194 237-305 487-305 240 0 474 108 474 379V0H777v-155h-10C713-51 605 22 440 22zm290-1304c-128 0-195-103-258-103-42 0-63 39-65 97H242c4-169 84-265 208-265 129 0 189 103 257 103 45 0 63-33 68-97h162c-3 169-89 265-207 265zM525-189c140 0 238-93 238-211v-121c-37 26-156 42-222 51-111 16-185 59-185 149 0 87 70 132 169 132" id="aN"/><g id="B"><use transform="matrix(0.0087890625,0,0,0.0087890625,0,0)" xlink:href="#Q"/><use transform="matrix(0.0087890625,0,0,0.0087890625,12.216796875,0)" xlink:href="#aK"/><use transform="matrix(0.0087890625,0,0,0.0087890625,22.833984375,0)" xlink:href="#at"/><use transform="matrix(0.0087890625,0,0,0.0087890625,33.2841796875,0)" xlink:href="#R"/><use transform="matrix(0.0087890625,0,0,0.0087890625,38.162109375,0)" xlink:href="#aL"/><use transform="matrix(0.0087890625,0,0,0.0087890625,43.0400390625,0)" xlink:href="#at"/><use transform="matrix(0.0087890625,0,0,0.0087890625,53.490234375,0)" xlink:href="#aM"/><use transform="matrix(0.0087890625,0,0,0.0087890625,64.2568359375,0)" xlink:href="#aN"/><use transform="matrix(0.0087890625,0,0,0.0087890625,74.70703125,0)" xlink:href="#U"/></g><g id="C"><use transform="matrix(0.0087890625,0,0,0.0087890625,0,0)" xlink:href="#ak"/><use transform="matrix(0.0087890625,0,0,0.0087890625,10.283203125,0)" xlink:href="#X"/><use transform="matrix(0.0087890625,0,0,0.0087890625,21.076171875,0)" xlink:href="#W"/><use transform="matrix(0.0087890625,0,0,0.0087890625,31.7109375,0)" xlink:href="#ad"/><use transform="matrix(0.0087890625,0,0,0.0087890625,37.423828125,0)" xlink:href="#Z"/><use transform="matrix(0.0087890625,0,0,0.0087890625,47.91796875,0)" xlink:href="#aw"/><use transform="matrix(0.0087890625,0,0,0.0087890625,58.5615234375,0)" xlink:href="#ah"/><use transform="matrix(0.0087890625,0,0,0.0087890625,69.5830078125,0)" xlink:href="#X"/><use transform="matrix(0.0087890625,0,0,0.0087890625,80.3759765625,0)" xlink:href="#ae"/><use transform="matrix(0.0087890625,0,0,0.0087890625,85.5615234375,0)" xlink:href="#af"/><use transform="matrix(0.0087890625,0,0,0.0087890625,95.0625,0)" xlink:href="#ad"/><use transform="matrix(0.0087890625,0,0,0.0087890625,100.951171875,0)" xlink:href="#ag"/></g><g id="D"><use transform="matrix(0.0087890625,0,0,0.0087890625,0,0)" xlink:href="#W"/><use transform="matrix(0.0087890625,0,0,0.0087890625,10.634765625,0)" xlink:href="#X"/><use transform="matrix(0.0087890625,0,0,0.0087890625,21.427734375,0)" xlink:href="#ad"/><use transform="matrix(0.0087890625,0,0,0.0087890625,27.404296875,0)" xlink:href="#ai"/><use transform="matrix(0.0087890625,0,0,0.0087890625,37.51171875,0)" xlink:href="#ae"/><use transform="matrix(0.0087890625,0,0,0.0087890625,42.697265625,0)" xlink:href="#am"/><use transform="matrix(0.0087890625,0,0,0.0087890625,49.359375,0)" xlink:href="#ac"/><use transform="matrix(0.0087890625,0,0,0.0087890625,53.71875,0)" xlink:href="#X"/><use transform="matrix(0.0087890625,0,0,0.0087890625,64.6875,0)" xlink:href="#ai"/><use transform="matrix(0.0087890625,0,0,0.0087890625,74.794921875,0)" xlink:href="#ad"/></g><g id="E"><use transform="matrix(0.0087890625,0,0,0.0087890625,0,0)" xlink:href="#ah"/><use transform="matrix(0.0087890625,0,0,0.0087890625,11.021484375,0)" xlink:href="#ai"/><use transform="matrix(0.0087890625,0,0,0.0087890625,21.12890625,0)" xlink:href="#ad"/><use transform="matrix(0.0087890625,0,0,0.0087890625,27.10546875,0)" xlink:href="#ai"/><use transform="matrix(0.0087890625,0,0,0.0087890625,37.212890625,0)" xlink:href="#ae"/><use transform="matrix(0.0087890625,0,0,0.0087890625,42.3984375,0)" xlink:href="#af"/><use transform="matrix(0.0087890625,0,0,0.0087890625,51.8994140625,0)" xlink:href="#ad"/><use transform="matrix(0.0087890625,0,0,0.0087890625,57.7880859375,0)" xlink:href="#ag"/></g><g id="F"><use transform="matrix(0.0087890625,0,0,0.0087890625,0,0)" xlink:href="#ad"/><use transform="matrix(0.0087890625,0,0,0.0087890625,5.888671875,0)" xlink:href="#al"/><use transform="matrix(0.0087890625,0,0,0.0087890625,10.248046875,0)" xlink:href="#ab"/><use transform="matrix(0.0087890625,0,0,0.0087890625,21.26953125,0)" xlink:href="#X"/><use transform="matrix(0.0087890625,0,0,0.0087890625,32.0625,0)" xlink:href="#ae"/><use transform="matrix(0.0087890625,0,0,0.0087890625,37.248046875,0)" xlink:href="#af"/><use transform="matrix(0.0087890625,0,0,0.0087890625,46.7490234375,0)" xlink:href="#ad"/><use transform="matrix(0.0087890625,0,0,0.0087890625,52.6376953125,0)" xlink:href="#ag"/></g><path d="M128 0v-1118h278l12 217c60-163 185-234 319-234 143 0 236 81 288 251 63-172 205-251 359-251 205 0 357 138 357 381V0h-301v-697c0-126-76-187-177-187-114 0-184 79-184 196V0H789v-705c0-109-72-179-174-179-106 0-187 74-187 208V0H128" id="aO"/><path d="M128 418v-1536h295v188h14c41-89 129-202 319-202 248 0 453 193 453 575 0 372-197 576-455 576-183 0-275-108-317-198h-9v597H128zm534-640c156 0 240-139 240-336 0-196-83-334-240-334-154 0-241 131-241 334 0 202 88 336 241 336" id="aP"/><g id="G"><use transform="matrix(0.0087890625,0,0,0.0087890625,0,0)" xlink:href="#az"/><use transform="matrix(0.0087890625,0,0,0.0087890625,13.3154296875,0)" xlink:href="#U"/><use transform="matrix(0.0087890625,0,0,0.0087890625,24.3544921875,0)" xlink:href="#aO"/><use transform="matrix(0.0087890625,0,0,0.0087890625,40.78125,0)" xlink:href="#aP"/><use transform="matrix(0.0087890625,0,0,0.0087890625,52.1279296875,0)" xlink:href="#U"/><use transform="matrix(0.0087890625,0,0,0.0087890625,63.1669921875,0)" xlink:href="#aF"/><use transform="matrix(0.0087890625,0,0,0.0087890625,70.8486328125,0)" xlink:href="#aA"/><use transform="matrix(0.0087890625,0,0,0.0087890625,77.5283203125,0)" xlink:href="#at"/><use transform="matrix(0.0087890625,0,0,0.0087890625,87.978515625,0)" xlink:href="#aO"/><use transform="matrix(0.0087890625,0,0,0.0087890625,104.4052734375,0)" xlink:href="#aH"/><use transform="matrix(0.0087890625,0,0,0.0087890625,115.1279296875,0)" xlink:href="#T"/><use transform="matrix(0.0087890625,0,0,0.0087890625,126.333984375,0)" xlink:href="#aA"/><use transform="matrix(0.0087890625,0,0,0.0087890625,132.75,0)" xlink:href="#U"/></g><path d="M611 442c-248 0-391-105-460-228l146-94c47 65 117 165 314 165 178 0 307-82 307-266v-224h-17C863-141 792-18 576-18c-268 0-472-195-472-546 0-346 197-568 476-568 216 0 288 133 326 193h17v-179h175V29c0 289-215 413-487 413zm-5-620c203 0 314-146 314-390 0-237-108-403-314-403-213 0-319 180-319 403 0 230 109 390 319 390" id="aQ"/><g id="H"><use transform="matrix(0.0087890625,0,0,0.0087890625,0,0)" xlink:href="#ad"/><use transform="matrix(0.0087890625,0,0,0.0087890625,5.9765625,0)" xlink:href="#ai"/><use transform="matrix(0.0087890625,0,0,0.0087890625,16.083984375,0)" xlink:href="#aQ"/><use transform="matrix(0.0087890625,0,0,0.0087890625,27.123046875,0)" xlink:href="#ae"/><use transform="matrix(0.0087890625,0,0,0.0087890625,32.30859375,0)" xlink:href="#af"/><use transform="matrix(0.0087890625,0,0,0.0087890625,41.8095703125,0)" xlink:href="#ad"/><use transform="matrix(0.0087890625,0,0,0.0087890625,47.6982421875,0)" xlink:href="#ag"/></g><path d="M677 24c-213 0-288-135-325-197h-20V0H158v-1490h180v551h14c37-59 106-193 324-193 279 0 474 222 474 576 0 356-194 580-473 580zm-27-161c209 0 317-186 317-421 0-232-105-413-317-413-206 0-314 166-314 413 0 249 111 421 314 421" id="aR"/><path d="M481 0L54-1118h197c107 314 236 620 325 951 87-331 217-637 324-951h197L670 0H481" id="aS"/><g id="I"><use transform="matrix(0.0087890625,0,0,0.0087890625,0,0)" xlink:href="#X"/><use transform="matrix(0.0087890625,0,0,0.0087890625,10.79296875,0)" xlink:href="#aR"/><use transform="matrix(0.0087890625,0,0,0.0087890625,21.814453125,0)" xlink:href="#af"/><use transform="matrix(0.0087890625,0,0,0.0087890625,31.3154296875,0)" xlink:href="#Z"/><use transform="matrix(0.0087890625,0,0,0.0087890625,41.8095703125,0)" xlink:href="#ag"/><use transform="matrix(0.0087890625,0,0,0.0087890625,48.8671875,0)" xlink:href="#aS"/><use transform="matrix(0.0087890625,0,0,0.0087890625,58.8955078125,0)" xlink:href="#ai"/><use transform="matrix(0.0087890625,0,0,0.0087890625,69.0029296875,0)" xlink:href="#an"/><use transform="matrix(0.0087890625,0,0,0.0087890625,79.4619140625,0)" xlink:href="#ao"/><use transform="matrix(0.0087890625,0,0,0.0087890625,89.5693359375,0)" xlink:href="#X"/><use transform="matrix(0.0087890625,0,0,0.0087890625,100.3623046875,0)" xlink:href="#ae"/><use transform="matrix(0.0087890625,0,0,0.0087890625,105.5478515625,0)" xlink:href="#af"/><use transform="matrix(0.0087890625,0,0,0.0087890625,115.048828125,0)" xlink:href="#ad"/><use transform="matrix(0.0087890625,0,0,0.0087890625,120.9375,0)" xlink:href="#ag"/></g><path d="M537 19C279 19 81-185 81-557c0-382 206-575 454-575 190 0 278 113 318 202h10v-560h300V0H868v-179h-15C812-89 719 19 537 19zm92-241c153 0 240-134 240-336 0-203-86-334-240-334-158 0-240 138-240 334 0 197 84 336 240 336" id="aT"/><g id="J"><use transform="matrix(0.0087890625,0,0,0.0087890625,0,0)" xlink:href="#aq"/><use transform="matrix(0.0087890625,0,0,0.0087890625,10.93359375,0)" xlink:href="#T"/><use transform="matrix(0.0087890625,0,0,0.0087890625,22.1396484375,0)" xlink:href="#aT"/><use transform="matrix(0.0087890625,0,0,0.0087890625,33.486328125,0)" xlink:href="#aH"/><use transform="matrix(0.0087890625,0,0,0.0087890625,44.208984375,0)" xlink:href="#aF"/><use transform="matrix(0.0087890625,0,0,0.0087890625,51.099609375,0)" xlink:href="#aH"/><use transform="matrix(0.0087890625,0,0,0.0087890625,61.822265625,0)" xlink:href="#aM"/><use transform="matrix(0.0087890625,0,0,0.0087890625,72.4130859375,0)" xlink:href="#U"/></g><g id="K"><use transform="matrix(0.0087890625,0,0,0.0087890625,0,0)" xlink:href="#ag"/><use transform="matrix(0.0087890625,0,0,0.0087890625,6.7763671875,0)" xlink:href="#ap"/><use transform="matrix(0.0087890625,0,0,0.0087890625,17.419921875,0)" xlink:href="#ai"/><use transform="matrix(0.0087890625,0,0,0.0087890625,27.52734375,0)" xlink:href="#ae"/><use transform="matrix(0.0087890625,0,0,0.0087890625,32.712890625,0)" xlink:href="#af"/><use transform="matrix(0.0087890625,0,0,0.0087890625,42.2138671875,0)" xlink:href="#ad"/><use transform="matrix(0.0087890625,0,0,0.0087890625,48.1025390625,0)" xlink:href="#ag"/></g><g id="L"><use transform="matrix(0.0087890625,0,0,0.0087890625,0,0)" xlink:href="#V"/><use transform="matrix(0.0087890625,0,0,0.0087890625,11.9091796875,0)" xlink:href="#W"/><use transform="matrix(0.0087890625,0,0,0.0087890625,22.5439453125,0)" xlink:href="#aw"/><use transform="matrix(0.0087890625,0,0,0.0087890625,33.1875,0)" xlink:href="#Y"/><use transform="matrix(0.0087890625,0,0,0.0087890625,48.955078125,0)" xlink:href="#Z"/><use transform="matrix(0.0087890625,0,0,0.0087890625,59.44921875,0)" xlink:href="#ag"/><use transform="matrix(0.0087890625,0,0,0.0087890625,65.9267578125,0)" xlink:href="#X"/><use transform="matrix(0.0087890625,0,0,0.0087890625,76.7197265625,0)" xlink:href="#ae"/><use transform="matrix(0.0087890625,0,0,0.0087890625,81.9052734375,0)" xlink:href="#af"/><use transform="matrix(0.0087890625,0,0,0.0087890625,91.40625,0)" xlink:href="#ad"/><use transform="matrix(0.0087890625,0,0,0.0087890625,97.294921875,0)" xlink:href="#ag"/></g><g id="M"><use transform="matrix(0.0087890625,0,0,0.0087890625,0,0)" xlink:href="#ak"/><use transform="matrix(0.0087890625,0,0,0.0087890625,10.283203125,0)" xlink:href="#al"/><use transform="matrix(0.0087890625,0,0,0.0087890625,14.642578125,0)" xlink:href="#ah"/><use transform="matrix(0.0087890625,0,0,0.0087890625,25.6640625,0)" xlink:href="#ai"/><use transform="matrix(0.0087890625,0,0,0.0087890625,35.771484375,0)" xlink:href="#ah"/><use transform="matrix(0.0087890625,0,0,0.0087890625,46.79296875,0)" xlink:href="#Z"/><use transform="matrix(0.0087890625,0,0,0.0087890625,57.287109375,0)" xlink:href="#ae"/><use transform="matrix(0.0087890625,0,0,0.0087890625,62.47265625,0)" xlink:href="#af"/><use transform="matrix(0.0087890625,0,0,0.0087890625,71.9736328125,0)" xlink:href="#ad"/><use transform="matrix(0.0087890625,0,0,0.0087890625,77.8623046875,0)" xlink:href="#ag"/></g><g id="N"><use transform="matrix(0.0087890625,0,0,0.0087890625,0,0)" xlink:href="#aR"/><use transform="matrix(0.0087890625,0,0,0.0087890625,11.197265625,0)" xlink:href="#ai"/><use transform="matrix(0.0087890625,0,0,0.0087890625,21.3046875,0)" xlink:href="#al"/><use transform="matrix(0.0087890625,0,0,0.0087890625,25.6640625,0)" xlink:href="#ag"/><use transform="matrix(0.0087890625,0,0,0.0087890625,32.7216796875,0)" xlink:href="#ag"/><use transform="matrix(0.0087890625,0,0,0.0087890625,39.19921875,0)" xlink:href="#X"/><use transform="matrix(0.0087890625,0,0,0.0087890625,49.9921875,0)" xlink:href="#ae"/><use transform="matrix(0.0087890625,0,0,0.0087890625,55.177734375,0)" xlink:href="#af"/><use transform="matrix(0.0087890625,0,0,0.0087890625,64.6787109375,0)" xlink:href="#ad"/><use transform="matrix(0.0087890625,0,0,0.0087890625,70.5673828125,0)" xlink:href="#ag"/></g><path d="M75-1237v-253h1217v253H837V0H531v-1237H75" id="aU"/><g id="O"><use transform="matrix(0.0087890625,0,0,0.0087890625,0,0)" xlink:href="#aU"/><use transform="matrix(0.0087890625,0,0,0.0087890625,10.6875,0)" xlink:href="#S"/><use transform="matrix(0.0087890625,0,0,0.0087890625,21.8935546875,0)" xlink:href="#aF"/><use transform="matrix(0.0087890625,0,0,0.0087890625,29.35546875,0)" xlink:href="#aO"/><use transform="matrix(0.0087890625,0,0,0.0087890625,45.7822265625,0)" xlink:href="#at"/></g><path d="M180 0v-1490h190v1322h690V0H180" id="aV"/><g id="P"><use transform="matrix(0.0087890625,0,0,0.0087890625,0,0)" xlink:href="#ai"/><use transform="matrix(0.0087890625,0,0,0.0087890625,10.107421875,0)" xlink:href="#W"/><use transform="matrix(0.0087890625,0,0,0.0087890625,20.7421875,0)" xlink:href="#X"/><use transform="matrix(0.0087890625,0,0,0.0087890625,31.53515625,0)" xlink:href="#aV"/><use transform="matrix(0.0087890625,0,0,0.0087890625,41.712890625,0)" xlink:href="#Z"/><use transform="matrix(0.0087890625,0,0,0.0087890625,52.20703125,0)" xlink:href="#ad"/><use transform="matrix(0.0087890625,0,0,0.0087890625,58.095703125,0)" xlink:href="#al"/><use transform="matrix(0.0087890625,0,0,0.0087890625,62.455078125,0)" xlink:href="#aS"/><use transform="matrix(0.0087890625,0,0,0.0087890625,72.2197265625,0)" xlink:href="#X"/><use transform="matrix(0.0087890625,0,0,0.0087890625,83.0126953125,0)" xlink:href="#ae"/><use transform="matrix(0.0087890625,0,0,0.0087890625,88.1982421875,0)" xlink:href="#af"/><use transform="matrix(0.0087890625,0,0,0.0087890625,97.69921875,0)" xlink:href="#ad"/><use transform="matrix(0.0087890625,0,0,0.0087890625,103.587890625,0)" xlink:href="#ag"/></g></defs></g></svg>